<?xml version="1.0" encoding="UTF-8"?>
<svg width="700pt" height="700pt" version="1.1" viewBox="0 0 700 700" xmlns="http://www.w3.org/2000/svg">
 <path d="m350 46.117c-15.664 0-29.477 5.1523-43.836 13.371-13.762 7.8789-29.453 19.441-48.75 33.66l-85.785 63.211c-24.746 18.211-41.957 30.879-51.391 49.551-9.4375 18.672-9.4258 40.043-9.4062 70.766v86.273c0 31.91 0 57.629 2.7188 77.855 2.8242 21.004 8.8672 38.688 22.91 52.734 14.047 14.047 31.73 20.086 52.73 22.91 20.23 2.7188 45.953 2.7188 77.863 2.7188h165.89c31.91 0 57.629 0 77.855-2.7188 21.008-2.8242 38.688-8.8633 52.734-22.91 14.047-14.047 20.086-31.73 22.91-52.734 2.7188-20.227 2.7188-45.945 2.7188-77.855v-86.273c0.015625-30.723 0.027343-52.094-9.4062-70.766-9.4336-18.672-26.645-31.34-51.391-49.551l-85.785-63.211c-19.297-14.219-34.988-25.781-48.75-33.66-14.359-8.2188-28.172-13.371-43.836-13.371z"/>
</svg>
