<?xml version="1.0" encoding="UTF-8"?>
<svg width="700pt" height="700pt" version="1.1" viewBox="0 0 700 700" xmlns="http://www.w3.org/2000/svg">
 <path d="m210 366.12v71.383c0 13.93 5.5312 27.281 15.383 37.117 9.8359 9.8516 23.188 15.383 37.117 15.383 28.996 0 52.5-23.504 52.5-52.5v-63.402c-30.012-3.9375-59.953-6.0742-89.828-6.7539-5.1445-0.10547-10.203-0.50781-15.172-1.2266zm87.5-247.33v218.02c63.543 6.5977 127.28 20.527 191.22 44.695 16.066 6.1758 34.141 4.0586 48.352-5.6719 14.246-9.7461 22.77-25.914 22.77-43.172 0.15625-58.168 0.15625-151.65 0.15625-210 0-17.359-8.5938-33.598-22.941-43.363-14.352-9.7812-32.605-11.832-48.758-5.4766-63.523 24.465-127.15 38.43-190.8 44.973zm-35 2.8867c-12.164 0.75391-24.324 1.2461-36.488 1.5234-47.527 0.80469-85.66 39.551-85.715 87.082-0.29688 11.32-0.29688 23.152-0.29688 34.598 0 47.668 38.168 86.555 85.836 87.465 12.215 0.27734 24.449 0.80469 36.664 1.5742z" fill-rule="evenodd"/>
</svg>
